Coordinates
version=1
nRows=11
nColumns=36
inDegrees=yes

Units are S.I. units (second, meters, Newtons, ...)
If the header above contains a line with 'inDegrees', this indicates whether rotational values are in degrees (yes) or radians (no).

endheader
time	pelvis_tilt	pelvis_list	pelvis_rotation	pelvis_tx	pelvis_ty	pelvis_tz	hip_flexion_r	hip_adduction_r	hip_rotation_r	knee_angle_r	knee_angle_r_beta	ankle_angle_r	subtalar_angle_r	mtp_angle_r	hip_flexion_l	hip_adduction_l	hip_rotation_l	knee_angle_l	knee_angle_l_beta	ankle_angle_l	subtalar_angle_l	mtp_angle_l	lumbar_extension	lumbar_bending	lumbar_rotation	arm_flex_r	arm_add_r	arm_rot_r	elbow_flex_r	pro_sup_r	arm_flex_l	arm_add_l	arm_rot_l	elbow_flex_l	pro_sup_l
      9.41666670	     -8.20783443	     -0.42449224	      3.15175157	      0.37287483	      0.93968926	     -0.02557233	      5.51319143	     -7.32830979	     -8.36318115	      0.62980329	      0.01099214	      1.17879036	     -5.91576262	     -7.49999987	      7.24735126	     -6.16608004	     -0.07950584	      0.61160754	      0.01067457	     -0.25579698	      0.66965674	     -7.49999987	      0.12137801	      1.92267575	      6.25113916	    -70.44961775	    -46.99556708	    -16.13170638	    104.84217644	     93.45641079	    -21.95661049	    -64.80960037	     12.91222864	    104.84312570	     90.12875609
      9.43333330	     -8.24598764	     -0.39463623	      3.14428264	      0.37270015	      0.93965860	     -0.02532374	      5.58927836	     -7.37231813	     -8.28087570	      0.63722099	      0.01112160	      1.18097377	     -5.94615701	     -7.49999987	      7.28883992	     -6.14476634	     -0.20545603	      0.61733020	      0.01077444	     -0.25425405	      0.74136404	     -7.49999987	      0.10291996	      1.86380628	      5.97416258	    -70.19576198	    -47.25366514	    -16.05101045	    104.87230490	     93.16371182	    -22.97556822	    -64.61001639	     11.85922138	    104.92850396	     90.17978456
      9.45000000	     -8.25273257	     -0.34571542	      3.20760880	      0.37675833	      0.93958153	     -0.03022459	      5.53886069	     -7.51792876	     -8.36662364	      0.62640202	      0.01093278	      1.08841167	     -5.84332000	     -7.49999987	      7.25648465	     -6.04379753	     -0.21849419	      0.61005787	      0.01064752	     -0.24619488	      0.74254053	     -7.49999987	      0.24796355	      1.91660274	      5.93891766	    -70.51850752	    -47.25855438	    -16.23188288	    104.36115347	     93.12809645	    -23.18726893	    -64.40044638	     11.84204824	    104.99710735	     90.18733097
      9.46666670	     -8.27525511	     -0.28710420	      3.23755260	      0.37655771	      0.93958616	     -0.02990911	      5.50794669	     -7.65491202	     -8.44046601	      0.63437322	      0.01107190	      1.20926196	     -5.57129495	     -7.49999987	      7.23565356	     -5.91572077	     -0.26649078	      0.60326519	      0.01052896	     -0.16459987	      0.70162869	     -7.49999987	      0.25285177	      1.94032351	      5.50329170	    -70.38316264	    -47.59808980	    -15.91809789	    104.30214064	     93.13767541	    -24.98931076	    -63.84937066	     10.11326860	    105.29374164	     90.62638404
      9.48333330	     -8.29134660	     -0.29244816	      3.25654285	      0.37303899	      0.93959246	     -0.02542356	      5.51531141	     -7.64540343	     -8.43787995	      0.62987229	      0.01099335	      1.21055243	     -5.57001456	     -7.49999987	      7.23155167	     -5.90599360	     -0.26853536	      0.59812161	      0.01043919	     -0.16097962	      0.69945008	     -7.49999987	      0.25315848	      1.95801274	      5.49955283	    -70.37828816	    -47.60045182	    -15.91903536	    104.30190587	     93.13738692	    -24.98644553	    -63.85078701	     10.11224680	    105.29409117	     90.62631470
      9.50000000	     -8.33768192	     -0.25643301	      3.31059457	      0.37264110	      0.93963545	     -0.02507625	      5.57184782	     -7.65062995	     -8.26032943	      0.62386475	      0.01088849	      1.33893093	     -5.57952610	     -7.49999987	      7.30051527	     -5.87719194	     -0.31243828	      0.58156225	      0.01015018	     -0.01864310	      0.78975860	     -7.49999987	      0.32262404	      1.84050075	      5.53931762	    -69.89437569	    -47.53065245	    -15.20368378	    104.00565428	     92.59046738	    -23.80348639	    -64.27158726	     11.25190104	    104.87637467	     90.47291699
      9.51666670	     -8.34420819	     -0.26947272	      3.32252804	      0.37277576	      0.93958872	     -0.02526636	      5.58098081	     -7.61058791	     -8.11688755	      0.62710343	      0.01094502	      1.33165999	     -5.72509634	     -7.49999987	      7.32099162	     -5.90467871	     -0.35934346	      0.57094695	      0.00996490	      0.04582887	      0.82609763	     -7.49999987	      0.30404712	      1.86387869	      5.73697766	    -69.89200138	    -47.25064943	    -15.37386182	    103.84144703	     92.50675905	    -22.95634584	    -64.37956213	     11.92906320	    104.63170717	     90.15702406
      9.53333330	     -8.35862443	     -0.28059123	      3.39591438	      0.37262091	      0.93963727	     -0.02521456	      5.58638512	     -7.57825842	     -8.20476351	      0.62577492	      0.01092183	      1.40041155	     -5.63809669	     -7.49999987	      7.36789789	     -5.91542595	     -0.28778888	      0.56946931	      0.00993911	      0.04792165	      0.80655258	     -7.49999987	      0.28940567	      1.83434204	      5.57283842	    -69.82498040	    -47.33245995	    -15.05949813	    103.77420463	     91.51097706	    -22.87811815	    -64.62923010	     12.10974796	    104.61477028	     89.27710698
      9.55000000	     -8.51917506	     -0.30616084	      3.47641559	      0.37291418	      0.93936497	     -0.02548243	      5.73241261	     -7.54560183	     -8.31776475	      0.62661258	      0.01093645	      1.57008759	     -5.34915139	     -7.49999987	      7.56748344	     -5.94967416	     -0.32979878	      0.57322594	      0.01000468	      0.09544935	      1.26565800	     -7.49999987	      0.59266026	      1.80724901	      5.49028665	    -69.85212055	    -47.03985652	    -14.68070448	    103.53049895	     88.38431002	    -22.78916171	    -64.83503251	     12.54482114	    104.82753762	     86.39643396
      9.56666670	     -8.33996767	     -0.29246811	      3.47295653	      0.37257770	      0.93964927	     -0.02533468	      5.55068004	     -7.53768594	     -8.16451164	      0.63233386	      0.01103631	      1.39551870	     -5.65327490	     -7.49999987	      7.38963016	     -5.94743069	     -0.35235377	      0.56109650	      0.00979298	      0.05505512	      1.19459558	     -7.49999987	      0.31171640	      1.80525530	      5.83024312	    -70.07977709	    -46.41743761	    -15.27030681	    102.98247655	     92.31639269	    -21.06478841	    -65.16782208	     14.03358559	    104.26945756	     89.91714396
      9.58333330	     -8.34241087	     -0.31384347	      3.48440770	      0.37275355	      0.93964670	     -0.02557282	      5.54876850	     -7.50710823	     -8.17742971	      0.63755958	      0.01112751	      1.33266526	     -5.62762384	     -7.49999987	      7.39641683	     -5.97535158	     -0.38664501	      0.55723032	      0.00972550	      0.06015887	      1.28259656	     -7.49999987	      0.33800441	      1.79647019	      5.64262414	    -69.88621770	    -46.34206795	    -15.10950661	    102.71209617	     90.29220401	    -21.10311301	    -65.23065447	     14.36373725	    104.13092554	     88.15717204
